<svg width="100%" height="100%" viewBox="-165 -165 330 330" xmlns="http://www.w3.org/2000/svg" class="w-full h-full drop-shadow-2xl"><circle cx="0" cy="0" r="145" fill="#1f2937" stroke="none"/><path d="M 0.00 0.00 L 7.48 23.85 L 14.97 47.71 L 22.45 71.56 M 22.45 71.56 L 29.94 95.41 L 37.42 119.27 M 22.45 71.56 A 75.00 75.00 0 0 1 -2.00 74.97 L -8.92 49.20 M 37.42 119.27 A 125.00 125.00 0 0 1 12.65 124.36 M 37.42 119.27 A 125.00 125.00 0 0 0 60.66 109.29 L 52.72 84.97 M 12.65 124.36 L 5.27 99.86 M 12.65 124.36 A 125.00 125.00 0 0 1 -12.65 124.36 M -12.65 124.36 L -19.73 98.03 L -26.24 70.26 M -12.65 124.36 A 125.00 125.00 0 0 1 -37.42 119.27 A 125.00 125.00 0 0 1 -60.66 109.29 M 52.72 84.97 L 44.47 60.39 L 35.42 35.29 A 50.00 50.00 0 0 0 47.76 14.78 M 52.72 84.97 A 100.00 100.00 0 0 0 72.20 69.19 M 47.76 14.78 L 24.40 5.45 A 25.00 25.00 0 0 0 16.92 -18.41 M 47.76 14.78 A 50.00 50.00 0 0 0 49.16 -9.11 L 74.88 -4.20 M 47.76 14.78 L 72.19 20.34 L 96.60 25.85 M 16.92 -18.41 A 25.00 25.00 0 0 0 -7.48 -23.85 A 25.00 25.00 0 0 0 -24.40 -5.45 M 16.92 -18.41 L 39.30 -30.91 L 56.51 -49.31 M -24.40 -5.45 A 25.00 25.00 0 0 0 -16.92 18.41 L -30.76 39.42 M -24.40 -5.45 L -49.91 -2.92 L -74.55 -8.18 M 56.51 -49.31 L 73.59 -67.71 L 90.60 -86.12 A 125.00 125.00 0 0 1 106.08 -66.12 L 88.11 -47.28 A 100.00 100.00 0 0 1 97.11 -23.89 A 100.00 100.00 0 0 1 99.99 1.01 M 56.51 -49.31 A 75.00 75.00 0 0 0 37.44 -64.99 M 56.51 -49.31 A 75.00 75.00 0 0 1 69.46 -28.28 M -60.66 109.29 L -43.49 90.05 A 100.00 100.00 0 0 1 -64.52 76.40 L -47.63 57.94 A 75.00 75.00 0 0 1 -63.86 39.33 M -60.66 109.29 A 125.00 125.00 0 0 1 -81.42 94.84 A 125.00 125.00 0 0 1 -98.85 76.51 M -63.86 39.33 L -45.55 20.61 M -63.86 39.33 A 75.00 75.00 0 0 1 -73.17 16.47 M 37.44 -64.99 L 20.43 -45.63 A 50.00 50.00 0 0 0 -3.12 -49.90 A 50.00 50.00 0 0 0 -25.95 -42.74 A 50.00 50.00 0 0 0 -42.84 -25.78 L -67.86 -31.95 L -92.60 -37.75 L -117.22 -43.41 A 125.00 125.00 0 0 0 -123.56 -18.93 L -99.08 -13.54 A 100.00 100.00 0 0 0 -99.33 11.53 M 37.44 -64.99 A 75.00 75.00 0 0 0 14.31 -73.62 A 75.00 75.00 0 0 0 -10.37 -74.28 A 75.00 75.00 0 0 0 -33.92 -66.89 M -98.85 76.51 L -81.49 57.96 M -98.85 76.51 A 125.00 125.00 0 0 1 -112.23 55.05 M 96.60 25.85 L 121.01 31.33 M 96.60 25.85 A 100.00 100.00 0 0 1 87.14 49.06 L 61.67 42.68 M 121.01 31.33 A 125.00 125.00 0 0 0 124.84 6.33 A 125.00 125.00 0 0 0 123.56 -18.93 A 125.00 125.00 0 0 0 117.22 -43.41 M 121.01 31.33 A 125.00 125.00 0 0 1 112.23 55.05 A 125.00 125.00 0 0 1 98.85 76.51 A 125.00 125.00 0 0 1 81.42 94.84 M -33.92 -66.89 A 75.00 75.00 0 0 0 -53.81 -52.25 L -62.96 -77.69 M -33.92 -66.89 L -41.66 -90.91 L -49.29 -114.87 A 125.00 125.00 0 0 1 -25.16 -122.44 L -17.74 -98.41 A 100.00 100.00 0 0 1 7.29 -99.73 A 100.00 100.00 0 0 1 31.86 -94.79 A 100.00 100.00 0 0 1 54.44 -83.89 L 71.41 -102.60 A 125.00 125.00 0 0 0 49.29 -114.87 A 125.00 125.00 0 0 0 25.16 -122.44 A 125.00 125.00 0 0 0 0.00 -125.00 M -62.96 -77.69 L -71.41 -102.60 M -62.96 -77.69 A 100.00 100.00 0 0 0 -80.30 -59.60 L -106.08 -66.12 A 125.00 125.00 0 0 1 -90.60 -86.12 M -112.23 55.05 L -93.35 35.87 M -112.23 55.05 A 125.00 125.00 0 0 1 -121.01 31.33 A 125.00 125.00 0 0 1 -124.84 6.33" fill="none" stroke="#f3f4f6" stroke-width="14" stroke-linecap="round" stroke-linejoin="round"/><circle cx="7.105427357601002e-15" cy="-125" r="12" fill="#f3f4f6"/><circle cx="0" cy="0" r="12" fill="#f3f4f6"/></svg>