<svg width="100%" height="100%" viewBox="-165 -165 330 330" xmlns="http://www.w3.org/2000/svg" class="w-full h-full drop-shadow-2xl"><circle cx="0" cy="0" r="145" fill="#1f2937" stroke="none"/><path d="M 0.00 0.00 L 24.57 -4.62 L 49.72 -5.25 L 74.36 -9.77 L 98.97 -14.34 L 123.56 -18.93 M 123.56 -18.93 A 125.00 125.00 0 0 0 117.22 -43.41 L 92.29 -38.50 L 67.16 -33.39 M 123.56 -18.93 A 125.00 125.00 0 0 1 124.84 6.33 L 99.42 10.72 M 67.16 -33.39 L 41.59 -27.76 A 50.00 50.00 0 0 0 23.92 -43.91 M 67.16 -33.39 A 75.00 75.00 0 0 0 52.68 -53.39 A 75.00 75.00 0 0 0 32.49 -67.60 A 75.00 75.00 0 0 0 8.78 -74.48 L 0.78 -49.99 M 0.78 -49.99 L 8.29 -23.59 A 25.00 25.00 0 0 0 -16.28 -18.97 A 25.00 25.00 0 0 0 -24.57 4.62 A 25.00 25.00 0 0 0 -8.29 23.59 A 25.00 25.00 0 0 0 16.28 18.97 L 32.57 37.94 M 0.78 -49.99 A 50.00 50.00 0 0 0 -22.54 -44.63 A 50.00 50.00 0 0 0 -40.70 -29.04 A 50.00 50.00 0 0 0 -49.54 -6.80 A 50.00 50.00 0 0 0 -47.02 17.00 A 50.00 50.00 0 0 0 -33.74 36.90 A 50.00 50.00 0 0 0 -12.72 48.35 M 32.57 37.94 L 48.85 56.91 L 65.14 75.88 L 81.42 94.84 M 32.57 37.94 A 50.00 50.00 0 0 1 11.21 48.73 L 27.73 69.69 L 44.22 89.69 A 100.00 100.00 0 0 1 20.53 97.87 L 3.60 74.91 A 75.00 75.00 0 0 1 -20.92 72.02 A 75.00 75.00 0 0 1 -43.17 61.33 M 99.42 10.72 L 73.50 14.90 L 46.47 18.46 L 64.68 37.96 L 81.96 57.29 M 99.42 10.72 A 100.00 100.00 0 0 1 93.63 35.11 L 112.23 55.05 A 125.00 125.00 0 0 0 121.01 31.33 M 81.42 94.84 A 125.00 125.00 0 0 1 60.66 109.29 M 81.42 94.84 A 125.00 125.00 0 0 0 98.85 76.51 M -43.17 61.33 A 75.00 75.00 0 0 1 -60.75 43.99 A 75.00 75.00 0 0 1 -71.74 21.88 A 75.00 75.00 0 0 1 -74.95 -2.60 M -43.17 61.33 L -52.03 85.40 L -60.66 109.29 M -60.66 109.29 A 125.00 125.00 0 0 1 -81.42 94.84 L -71.64 69.77 A 100.00 100.00 0 0 1 -86.74 49.77 A 100.00 100.00 0 0 1 -96.39 26.63 A 100.00 100.00 0 0 1 -99.98 1.82 A 100.00 100.00 0 0 1 -97.30 -23.10 L -70.05 -26.80 M -60.66 109.29 A 125.00 125.00 0 0 0 -37.42 119.27 L -29.16 95.65 A 100.00 100.00 0 0 0 -4.46 99.90 L -12.65 124.36 A 125.00 125.00 0 0 0 12.65 124.36 A 125.00 125.00 0 0 0 37.42 119.27 M -70.05 -26.80 A 75.00 75.00 0 0 1 -57.55 -48.09 A 75.00 75.00 0 0 1 -38.82 -64.17 M -70.05 -26.80 L -88.49 -46.57 L -106.08 -66.12 A 125.00 125.00 0 0 0 -117.22 -43.41 A 125.00 125.00 0 0 0 -123.56 -18.93 A 125.00 125.00 0 0 0 -124.84 6.33 A 125.00 125.00 0 0 0 -121.01 31.33 A 125.00 125.00 0 0 0 -112.23 55.05 A 125.00 125.00 0 0 0 -98.85 76.51 M -38.82 -64.17 A 75.00 75.00 0 0 1 -15.88 -73.30 L -32.63 -94.53 L -49.29 -114.87 A 125.00 125.00 0 0 1 -25.16 -122.44 L -8.10 -99.67 A 100.00 100.00 0 0 1 16.94 -98.55 A 100.00 100.00 0 0 1 40.92 -91.24 A 100.00 100.00 0 0 1 62.33 -78.20 A 100.00 100.00 0 0 1 79.82 -60.24 L 106.08 -66.12 A 125.00 125.00 0 0 0 90.60 -86.12 A 125.00 125.00 0 0 0 71.41 -102.60 A 125.00 125.00 0 0 0 49.29 -114.87 A 125.00 125.00 0 0 0 25.16 -122.44 A 125.00 125.00 0 0 0 -0.00 -125.00 M -38.82 -64.17 L -55.11 -83.44 L -71.41 -102.60 A 125.00 125.00 0 0 0 -90.60 -86.12 L -74.13 -67.11" fill="none" stroke="#f3f4f6" stroke-width="14" stroke-linecap="round" stroke-linejoin="round"/><circle cx="-3.552713678800501e-14" cy="-125" r="12" fill="#f3f4f6"/><circle cx="0" cy="0" r="12" fill="#f3f4f6"/></svg>