<svg width="100%" height="100%" viewBox="-165 -165 330 330" xmlns="http://www.w3.org/2000/svg" class="w-full h-full drop-shadow-2xl"><circle cx="0" cy="0" r="145" fill="#1f2937" stroke="none"/><path d="M -48.40 12.53 L -24.20 6.27 L 0.00 0.00 L -6.67 24.09 L -17.18 46.95 M -17.18 46.95 L -23.97 71.07 M -17.18 46.95 A 50.00 50.00 0 0 0 6.61 49.56 A 50.00 50.00 0 0 0 28.88 40.81 M -23.97 71.07 L -30.71 95.17 M -23.97 71.07 A 75.00 75.00 0 0 0 0.40 75.00 A 75.00 75.00 0 0 0 24.73 70.81 M -30.71 95.17 L -37.42 119.27 A 125.00 125.00 0 0 1 -60.66 109.29 A 125.00 125.00 0 0 1 -81.42 94.84 M -30.71 95.17 A 100.00 100.00 0 0 1 -53.41 84.54 M -53.41 84.54 L -45.75 59.43 L -37.04 33.59 M -53.41 84.54 A 100.00 100.00 0 0 1 -72.76 68.60 M 28.88 40.81 L 17.53 17.83 A 25.00 25.00 0 0 0 24.20 -6.27 M 28.88 40.81 A 50.00 50.00 0 0 0 44.54 22.72 M 28.88 40.81 L 46.38 58.94 L 63.90 76.92 L 81.42 94.84 M 24.20 -6.27 A 25.00 25.00 0 0 0 6.67 -24.09 A 25.00 25.00 0 0 0 -17.53 -17.83 L -37.81 -32.72 M 24.20 -6.27 L 50.00 -0.58 M 81.42 94.84 A 125.00 125.00 0 0 0 98.85 76.51 M 81.42 94.84 A 125.00 125.00 0 0 1 60.66 109.29 L 42.76 90.40 A 100.00 100.00 0 0 1 18.94 98.19 A 100.00 100.00 0 0 1 -6.08 99.82 L -12.65 124.36 A 125.00 125.00 0 0 0 12.65 124.36 A 125.00 125.00 0 0 0 37.42 119.27 M 98.85 76.51 L 81.02 58.61 M 98.85 76.51 A 125.00 125.00 0 0 0 112.23 55.05 A 125.00 125.00 0 0 0 121.01 31.33 M 81.02 58.61 L 63.01 40.69 A 75.00 75.00 0 0 0 72.80 18.02 A 75.00 75.00 0 0 0 74.71 -6.59 M 81.02 58.61 A 100.00 100.00 0 0 0 93.05 36.62 A 100.00 100.00 0 0 0 99.24 12.33 L 124.84 6.33 M 74.71 -6.59 A 75.00 75.00 0 0 0 68.52 -30.49 L 44.00 -23.75 A 50.00 50.00 0 0 0 27.92 -41.48 A 50.00 50.00 0 0 0 5.45 -49.70 M 74.71 -6.59 L 99.19 -12.73 M 5.45 -49.70 A 50.00 50.00 0 0 0 -18.28 -46.54 M 5.45 -49.70 L 11.95 -74.04 L 18.54 -98.27 M 18.54 -98.27 L 25.16 -122.44 A 125.00 125.00 0 0 1 49.29 -114.87 L 42.39 -90.57 L 35.34 -66.15 A 75.00 75.00 0 0 1 54.91 -51.09 L 80.78 -58.94 M 18.54 -98.27 A 100.00 100.00 0 0 0 -6.48 -99.79 L -12.74 -73.91 A 75.00 75.00 0 0 0 -36.05 -65.77 A 75.00 75.00 0 0 0 -55.45 -50.50 A 75.00 75.00 0 0 0 -68.84 -29.76 L -48.68 -11.40 L -74.78 -5.79 M -74.78 -5.79 L -100.00 0.20 L -124.84 6.33 A 125.00 125.00 0 0 1 -123.56 -18.93 L -96.91 -24.67 A 100.00 100.00 0 0 1 -87.73 -48.00 A 100.00 100.00 0 0 1 -73.04 -68.31 M -74.78 -5.79 A 75.00 75.00 0 0 0 -72.61 18.80 A 75.00 75.00 0 0 0 -62.57 41.36 L -87.53 48.35 L -112.23 55.05 M -112.23 55.05 A 125.00 125.00 0 0 0 -98.85 76.51 M -112.23 55.05 A 125.00 125.00 0 0 1 -121.01 31.33 L -96.81 25.07 M -73.04 -68.31 A 100.00 100.00 0 0 1 -53.75 -84.32 A 100.00 100.00 0 0 1 -31.09 -95.04 L -49.29 -114.87 A 125.00 125.00 0 0 1 -25.16 -122.44 A 125.00 125.00 0 0 1 0.00 -125.00 M -73.04 -68.31 L -90.60 -86.12 M 80.78 -58.94 L 106.08 -66.12 A 125.00 125.00 0 0 0 90.60 -86.12 L 63.59 -77.18 L 71.41 -102.60 M 80.78 -58.94 A 100.00 100.00 0 0 1 92.90 -37.00 L 117.22 -43.41 A 125.00 125.00 0 0 1 123.56 -18.93 M -90.60 -86.12 A 125.00 125.00 0 0 1 -71.41 -102.60 M -90.60 -86.12 A 125.00 125.00 0 0 0 -106.08 -66.12 A 125.00 125.00 0 0 0 -117.22 -43.41" fill="none" stroke="#f3f4f6" stroke-width="14" stroke-linecap="round" stroke-linejoin="round"/><circle cx="7.105427357601002e-15" cy="-125" r="12" fill="#f3f4f6"/><circle cx="0" cy="0" r="12" fill="#f3f4f6"/></svg>