<svg width="100%" height="100%" viewBox="-165 -165 330 330" xmlns="http://www.w3.org/2000/svg" class="w-full h-full drop-shadow-2xl"><circle cx="0" cy="0" r="145" fill="#1f2937" stroke="none"/><path d="M -9.08 23.29 L 0.00 0.00 L 15.63 19.51 L 34.31 36.37 M -9.08 23.29 L -10.45 48.90 L -19.38 72.45 L -28.39 95.89 M -9.08 23.29 A 25.00 25.00 0 0 1 -24.71 3.79 M -28.39 95.89 L -37.42 119.27 A 125.00 125.00 0 0 0 -12.65 124.36 M -28.39 95.89 A 100.00 100.00 0 0 1 -51.34 85.82 M -12.65 124.36 L -3.65 99.93 M -12.65 124.36 A 125.00 125.00 0 0 0 12.65 124.36 A 125.00 125.00 0 0 0 37.42 119.27 A 125.00 125.00 0 0 0 60.66 109.29 L 44.95 89.33 A 100.00 100.00 0 0 0 65.75 75.35 M -3.65 99.93 L 5.20 74.82 M -3.65 99.93 A 100.00 100.00 0 0 0 21.32 97.70 M 5.20 74.82 L 13.47 48.15 M 5.20 74.82 A 75.00 75.00 0 0 0 29.21 69.08 M -51.34 85.82 L -41.85 62.23 M -51.34 85.82 A 100.00 100.00 0 0 1 -71.07 70.35 L -81.42 94.84 A 125.00 125.00 0 0 0 -60.66 109.29 M -41.85 62.23 L -31.97 38.44 M -41.85 62.23 A 75.00 75.00 0 0 1 -59.79 45.27 M -59.79 45.27 A 75.00 75.00 0 0 1 -71.25 23.40 M -59.79 45.27 L -86.33 50.47 M 34.31 36.37 L 50.06 55.85 M 34.31 36.37 A 50.00 50.00 0 0 0 47.28 16.26 L 24.71 -3.79 M -71.25 23.40 L -46.18 19.18 M -71.25 23.40 A 75.00 75.00 0 0 1 -74.99 -1.00 L -49.80 -4.48 A 50.00 50.00 0 0 1 -42.01 -27.11 L -15.63 -19.51 A 25.00 25.00 0 0 1 9.08 -23.29 L 21.84 -44.98 L 31.04 -68.28 L 40.18 -91.57 M -71.25 23.40 L -96.17 27.41 M 65.75 75.35 A 100.00 100.00 0 0 0 82.42 56.63 L 65.48 36.57 A 75.00 75.00 0 0 0 73.81 13.33 M 65.75 75.35 L 81.42 94.84 A 125.00 125.00 0 0 0 98.85 76.51 A 125.00 125.00 0 0 0 112.23 55.05 L 93.92 34.35 M 40.18 -91.57 L 49.29 -114.87 A 125.00 125.00 0 0 0 25.16 -122.44 L 16.14 -98.69 A 100.00 100.00 0 0 0 -8.91 -99.60 M 40.18 -91.57 A 100.00 100.00 0 0 1 61.69 -78.70 M 73.81 13.33 A 75.00 75.00 0 0 0 74.14 -11.36 L 49.42 -7.57 A 50.00 50.00 0 0 0 40.24 -29.67 L 66.43 -34.81 L 91.98 -39.25 M 73.81 13.33 L 99.51 9.92 M 91.98 -39.25 L 117.22 -43.41 A 125.00 125.00 0 0 0 106.08 -66.12 M 91.98 -39.25 A 100.00 100.00 0 0 1 98.85 -15.14 L 123.56 -18.93 A 125.00 125.00 0 0 1 124.84 6.33 A 125.00 125.00 0 0 1 121.01 31.33 M -96.17 27.41 L -121.01 31.33 M -96.17 27.41 A 100.00 100.00 0 0 1 -99.97 2.63 A 100.00 100.00 0 0 1 -97.48 -22.31 M -121.01 31.33 A 125.00 125.00 0 0 1 -124.84 6.33 M -121.01 31.33 A 125.00 125.00 0 0 0 -112.23 55.05 A 125.00 125.00 0 0 0 -98.85 76.51 M 61.69 -78.70 L 51.53 -54.50 M 61.69 -78.70 A 100.00 100.00 0 0 1 79.33 -60.89 M 61.69 -78.70 L 71.41 -102.60 A 125.00 125.00 0 0 1 90.60 -86.12 M -97.48 -22.31 L -70.61 -25.30 A 75.00 75.00 0 0 1 -58.57 -46.85 M -97.48 -22.31 A 100.00 100.00 0 0 1 -88.87 -45.85 L -106.08 -66.12 A 125.00 125.00 0 0 0 -117.22 -43.41 A 125.00 125.00 0 0 0 -123.56 -18.93 M -58.57 -46.85 A 75.00 75.00 0 0 1 -40.18 -63.33 L -24.61 -43.53 A 50.00 50.00 0 0 1 -1.56 -49.98 L 7.19 -74.65 M -58.57 -46.85 L -74.68 -66.51 L -90.60 -86.12 A 125.00 125.00 0 0 1 -71.41 -102.60 L -55.79 -82.99 A 100.00 100.00 0 0 1 -33.40 -94.26 M -33.40 -94.26 L -17.44 -72.94 M -33.40 -94.26 L -49.29 -114.87 A 125.00 125.00 0 0 1 -25.16 -122.44 A 125.00 125.00 0 0 1 0.00 -125.00" fill="none" stroke="#f3f4f6" stroke-width="14" stroke-linecap="round" stroke-linejoin="round"/><circle cx="7.105427357601002e-15" cy="-125" r="12" fill="#f3f4f6"/><circle cx="0" cy="0" r="12" fill="#f3f4f6"/></svg>