<svg width="100%" height="100%" viewBox="-165 -165 330 330" xmlns="http://www.w3.org/2000/svg" class="w-full h-full drop-shadow-2xl"><circle cx="0" cy="0" r="145" fill="#1f2937" stroke="none"/><path d="M 0.00 0.00 L -24.83 2.95 M 0.00 0.00 L 24.83 -2.95 M 0.00 0.00 L 14.97 20.03 L 35.97 34.73 M -24.83 2.95 L -49.95 -2.14 M -24.83 2.95 A 25.00 25.00 0 0 0 -9.86 22.97 M -49.95 -2.14 L -75.00 0.60 M -49.95 -2.14 A 50.00 50.00 0 0 1 -43.24 -25.11 L -14.97 -20.03 M -75.00 0.60 L -99.94 3.44 M -75.00 0.60 A 75.00 75.00 0 0 1 -71.13 -23.78 A 75.00 75.00 0 0 1 -59.55 -45.59 L -75.21 -65.90 L -90.60 -86.12 M -99.94 3.44 L -124.84 6.33 M -99.94 3.44 A 100.00 100.00 0 0 1 -97.66 -21.52 M -124.84 6.33 A 125.00 125.00 0 0 1 -123.56 -18.93 A 125.00 125.00 0 0 1 -117.22 -43.41 L -89.24 -45.13 L -106.08 -66.12 M -124.84 6.33 A 125.00 125.00 0 0 0 -121.01 31.33 M -121.01 31.33 L -95.94 28.19 M -121.01 31.33 A 125.00 125.00 0 0 0 -112.23 55.05 A 125.00 125.00 0 0 0 -98.85 76.51 A 125.00 125.00 0 0 0 -81.42 94.84 M -95.94 28.19 L -70.74 24.92 L -45.23 21.32 A 50.00 50.00 0 0 0 -30.14 39.89 A 50.00 50.00 0 0 0 -8.15 49.33 M -95.94 28.19 A 100.00 100.00 0 0 0 -85.92 51.17 M -14.97 -20.03 A 25.00 25.00 0 0 1 9.86 -22.97 M -14.97 -20.03 L -26.61 -42.33 M -85.92 51.17 L -58.82 46.54 M -85.92 51.17 A 100.00 100.00 0 0 0 -70.50 70.93 M 35.97 34.73 L 51.24 54.77 L 66.36 74.81 L 81.42 94.84 M 35.97 34.73 A 50.00 50.00 0 0 1 15.71 47.47 L 30.68 68.44 A 75.00 75.00 0 0 1 6.79 74.69 A 75.00 75.00 0 0 1 -17.83 72.85 M 81.42 94.84 A 125.00 125.00 0 0 1 60.66 109.29 L 45.67 88.96 A 100.00 100.00 0 0 1 22.11 97.52 A 100.00 100.00 0 0 1 -2.84 99.96 L -12.65 124.36 M 81.42 94.84 A 125.00 125.00 0 0 0 98.85 76.51 M -17.83 72.85 A 75.00 75.00 0 0 1 -40.52 63.11 M -17.83 72.85 L -27.61 96.11 M -26.61 -42.33 L -41.52 -62.46 L -56.46 -82.54 L -71.41 -102.60 M -26.61 -42.33 A 50.00 50.00 0 0 1 -3.89 -49.85 A 50.00 50.00 0 0 1 19.72 -45.95 A 50.00 50.00 0 0 1 38.81 -31.52 A 50.00 50.00 0 0 1 49.02 -9.87 A 50.00 50.00 0 0 1 47.99 14.04 L 74.07 11.75 L 99.58 9.11 M -12.65 124.36 A 125.00 125.00 0 0 1 -37.42 119.27 A 125.00 125.00 0 0 1 -60.66 109.29 L -50.64 86.23 M -12.65 124.36 A 125.00 125.00 0 0 0 12.65 124.36 A 125.00 125.00 0 0 0 37.42 119.27 M 99.58 9.11 L 124.84 6.33 A 125.00 125.00 0 0 0 123.56 -18.93 L 98.72 -15.94 L 73.88 -12.94 A 75.00 75.00 0 0 0 65.67 -36.22 A 75.00 75.00 0 0 0 50.35 -55.58 A 75.00 75.00 0 0 0 29.58 -68.92 A 75.00 75.00 0 0 0 5.60 -74.79 A 75.00 75.00 0 0 0 -18.99 -72.56 L -34.16 -93.98 L -49.29 -114.87 A 125.00 125.00 0 0 1 -25.16 -122.44 L -9.71 -99.53 A 100.00 100.00 0 0 1 15.34 -98.82 A 100.00 100.00 0 0 1 39.44 -91.90 A 100.00 100.00 0 0 1 61.05 -79.20 A 100.00 100.00 0 0 1 78.83 -61.53 A 100.00 100.00 0 0 1 91.65 -39.99 L 117.22 -43.41 A 125.00 125.00 0 0 0 106.08 -66.12 A 125.00 125.00 0 0 0 90.60 -86.12 A 125.00 125.00 0 0 0 71.41 -102.60 A 125.00 125.00 0 0 0 49.29 -114.87 A 125.00 125.00 0 0 0 25.16 -122.44 A 125.00 125.00 0 0 0 0.00 -125.00 M 99.58 9.11 A 100.00 100.00 0 0 1 94.19 33.59 M 94.19 33.59 L 66.24 35.17 L 82.88 55.96 M 94.19 33.59 L 121.01 31.33 A 125.00 125.00 0 0 1 112.23 55.05" fill="none" stroke="#f3f4f6" stroke-width="14" stroke-linecap="round" stroke-linejoin="round"/><circle cx="1.4210854715202004e-14" cy="-125" r="12" fill="#f3f4f6"/><circle cx="0" cy="0" r="12" fill="#f3f4f6"/></svg>