<svg width="100%" height="100%" viewBox="-165 -165 330 330" xmlns="http://www.w3.org/2000/svg" class="w-full h-full drop-shadow-2xl"><circle cx="0" cy="0" r="145" fill="#1f2937" stroke="none"/><path d="M 0.00 0.00 L -25.00 -0.42 M -25.00 -0.42 L -49.48 7.19 M -25.00 -0.42 A 25.00 25.00 0 0 1 -12.13 -21.86 M -49.48 7.19 L -74.67 6.99 M -49.48 7.19 A 50.00 50.00 0 0 0 -40.47 29.36 L -12.86 21.44 M -74.67 6.99 L -99.78 6.68 M -74.67 6.99 A 75.00 75.00 0 0 1 -72.90 -17.63 M -99.78 6.68 L -124.84 6.33 A 125.00 125.00 0 0 0 -121.01 31.33 A 125.00 125.00 0 0 0 -112.23 55.05 A 125.00 125.00 0 0 0 -98.85 76.51 A 125.00 125.00 0 0 0 -81.42 94.84 A 125.00 125.00 0 0 0 -60.66 109.29 M -99.78 6.68 A 100.00 100.00 0 0 0 -94.98 31.29 M -99.78 6.68 A 100.00 100.00 0 0 1 -98.30 -18.34 M -12.86 21.44 A 25.00 25.00 0 0 0 12.13 21.86 M -12.86 21.44 L -22.19 44.80 M -94.98 31.29 L -68.36 30.86 M -94.98 31.29 A 100.00 100.00 0 0 0 -84.21 53.92 A 100.00 100.00 0 0 0 -68.16 73.17 M -72.90 -17.63 L -47.15 -16.63 M -72.90 -17.63 A 75.00 75.00 0 0 1 -63.22 -40.35 A 75.00 75.00 0 0 1 -46.69 -58.69 L -34.02 -36.64 A 50.00 50.00 0 0 1 -13.10 -48.25 A 50.00 50.00 0 0 1 10.83 -48.81 L 23.59 -71.19 M 12.13 21.86 A 25.00 25.00 0 0 0 25.00 0.42 M 12.13 21.86 L 24.27 43.72 M 25.00 0.42 A 25.00 25.00 0 0 0 12.86 -21.44 L 32.27 -38.19 L 45.43 -59.67 M 25.00 0.42 L 49.76 4.86 L 74.81 5.40 M -98.30 -18.34 A 100.00 100.00 0 0 1 -90.65 -42.21 A 100.00 100.00 0 0 1 -77.31 -63.43 A 100.00 100.00 0 0 1 -59.11 -80.66 M -98.30 -18.34 L -123.56 -18.93 A 125.00 125.00 0 0 1 -117.22 -43.41 A 125.00 125.00 0 0 1 -106.08 -66.12 M -68.16 73.17 L -54.63 51.38 A 75.00 75.00 0 0 0 -34.99 66.34 A 75.00 75.00 0 0 0 -11.55 74.10 M -68.16 73.17 A 100.00 100.00 0 0 0 -47.82 87.83 M -11.55 74.10 L 1.17 49.99 L 13.13 73.84 M -11.55 74.10 L -24.48 96.96 L -37.42 119.27 A 125.00 125.00 0 0 0 -12.65 124.36 M 13.13 73.84 L 25.26 96.76 L 37.42 119.27 M 13.13 73.84 A 75.00 75.00 0 0 0 36.40 65.58 M 36.40 65.58 A 75.00 75.00 0 0 0 55.72 50.20 M 36.40 65.58 L 48.53 87.43 M 55.72 50.20 L 41.80 27.43 M 55.72 50.20 A 75.00 75.00 0 0 0 69.00 29.39 L 95.23 30.52 M 48.53 87.43 L 60.66 109.29 M 48.53 87.43 A 100.00 100.00 0 0 0 68.75 72.62 A 100.00 100.00 0 0 0 84.65 53.24 L 98.85 76.51 M -12.65 124.36 L 0.41 100.00 M -12.65 124.36 A 125.00 125.00 0 0 0 12.65 124.36 M 98.85 76.51 A 125.00 125.00 0 0 1 81.42 94.84 M 98.85 76.51 A 125.00 125.00 0 0 0 112.23 55.05 A 125.00 125.00 0 0 0 121.01 31.33 A 125.00 125.00 0 0 0 124.84 6.33 L 99.83 5.87 A 100.00 100.00 0 0 0 98.15 -19.14 L 72.50 -19.19 M 72.50 -19.19 L 46.32 -18.82 M 72.50 -19.19 A 75.00 75.00 0 0 0 62.35 -41.69 L 76.79 -64.05 L 90.60 -86.12 M -59.11 -80.66 A 100.00 100.00 0 0 1 -37.19 -92.83 L -25.11 -70.67 A 75.00 75.00 0 0 1 -0.80 -75.00 L -12.94 -99.16 L -25.16 -122.44 M -59.11 -80.66 L -71.41 -102.60 M -71.41 -102.60 A 125.00 125.00 0 0 1 -49.29 -114.87 M -71.41 -102.60 A 125.00 125.00 0 0 0 -90.60 -86.12 M 90.60 -86.12 A 125.00 125.00 0 0 1 106.08 -66.12 L 90.31 -42.94 L 117.22 -43.41 A 125.00 125.00 0 0 1 123.56 -18.93 M 90.60 -86.12 A 125.00 125.00 0 0 0 71.41 -102.60 M 71.41 -102.60 L 58.45 -81.14 A 100.00 100.00 0 0 0 36.44 -93.13 A 100.00 100.00 0 0 0 12.13 -99.26 L 25.16 -122.44 A 125.00 125.00 0 0 0 0.00 -125.00 M 71.41 -102.60 A 125.00 125.00 0 0 0 49.29 -114.87" fill="none" stroke="#f3f4f6" stroke-width="14" stroke-linecap="round" stroke-linejoin="round"/><circle cx="7.105427357601002e-15" cy="-125" r="12" fill="#f3f4f6"/><circle cx="0" cy="0" r="12" fill="#f3f4f6"/></svg>