<svg width="100%" height="100%" viewBox="-165 -165 330 330" xmlns="http://www.w3.org/2000/svg" class="w-full h-full drop-shadow-2xl"><circle cx="0" cy="0" r="145" fill="#1f2937" stroke="none"/><path d="M -24.91 2.11 L 0.00 0.00 L -14.28 -20.52 L -28.56 -41.04 L -42.85 -61.56 M -24.91 2.11 L -50.00 0.19 M -24.91 2.11 A 25.00 25.00 0 0 0 -10.63 22.63 A 25.00 25.00 0 0 0 14.28 20.52 A 25.00 25.00 0 0 0 24.91 -2.11 A 25.00 25.00 0 0 0 10.63 -22.63 M -50.00 0.19 L -74.97 2.20 M -50.00 0.19 A 50.00 50.00 0 0 0 -44.18 23.41 A 50.00 50.00 0 0 0 -28.24 41.26 A 50.00 50.00 0 0 0 -5.83 49.66 M -42.85 -61.56 L -57.13 -82.08 M -42.85 -61.56 A 75.00 75.00 0 0 1 -20.54 -72.13 M -57.13 -82.08 L -71.41 -102.60 M -57.13 -82.08 A 100.00 100.00 0 0 0 -75.74 -65.29 L -60.51 -44.31 M -71.41 -102.60 A 125.00 125.00 0 0 1 -49.29 -114.87 L -34.92 -93.70 M -71.41 -102.60 A 125.00 125.00 0 0 0 -90.60 -86.12 A 125.00 125.00 0 0 0 -106.08 -66.12 L -89.60 -44.40 L -71.62 -22.26 M -20.54 -72.13 L -6.22 -49.61 A 50.00 50.00 0 0 1 17.55 -46.82 A 50.00 50.00 0 0 1 37.30 -33.30 A 50.00 50.00 0 0 1 48.50 -12.15 A 50.00 50.00 0 0 1 48.59 11.78 A 50.00 50.00 0 0 1 37.55 33.01 A 50.00 50.00 0 0 1 17.91 46.68 M -20.54 -72.13 A 75.00 75.00 0 0 1 4.00 -74.89 M -71.62 -22.26 L -44.36 -23.06 M -71.62 -22.26 L -97.83 -20.73 L -123.56 -18.93 M -123.56 -18.93 A 125.00 125.00 0 0 0 -124.84 6.33 M -123.56 -18.93 A 125.00 125.00 0 0 1 -117.22 -43.41 M -124.84 6.33 L -99.91 4.26 A 100.00 100.00 0 0 0 -95.71 28.97 L -70.19 26.42 A 75.00 75.00 0 0 0 -57.81 47.78 A 75.00 75.00 0 0 0 -39.16 63.96 M -124.84 6.33 A 125.00 125.00 0 0 0 -121.01 31.33 A 125.00 125.00 0 0 0 -112.23 55.05 L -85.50 51.86 A 100.00 100.00 0 0 0 -69.92 71.49 L -81.42 94.84 M -39.16 63.96 A 75.00 75.00 0 0 0 -16.27 73.21 A 75.00 75.00 0 0 0 8.38 74.53 M -39.16 63.96 L -49.94 86.64 M -81.42 94.84 A 125.00 125.00 0 0 1 -98.85 76.51 M -81.42 94.84 A 125.00 125.00 0 0 0 -60.66 109.29 A 125.00 125.00 0 0 0 -37.42 119.27 L -26.83 96.33 A 100.00 100.00 0 0 0 -2.03 99.98 A 100.00 100.00 0 0 0 22.90 97.34 A 100.00 100.00 0 0 0 46.39 88.59 M 46.39 88.59 L 32.13 67.77 A 75.00 75.00 0 0 0 52.39 53.67 A 75.00 75.00 0 0 0 66.98 33.75 A 75.00 75.00 0 0 0 74.31 10.17 A 75.00 75.00 0 0 0 73.58 -14.51 A 75.00 75.00 0 0 0 64.89 -37.62 M 46.39 88.59 A 100.00 100.00 0 0 0 66.96 74.27 M 64.89 -37.62 A 75.00 75.00 0 0 0 49.16 -56.65 A 75.00 75.00 0 0 0 28.10 -69.54 L 38.69 -92.21 L 49.29 -114.87 M 64.89 -37.62 L 91.33 -40.74 L 117.22 -43.41 A 125.00 125.00 0 0 0 106.08 -66.12 L 78.33 -62.17 M 49.29 -114.87 A 125.00 125.00 0 0 0 25.16 -122.44 L 14.54 -98.94 A 100.00 100.00 0 0 0 -10.52 -99.45 L -25.16 -122.44 A 125.00 125.00 0 0 1 0.00 -125.00 M 49.29 -114.87 A 125.00 125.00 0 0 1 71.41 -102.60 M 78.33 -62.17 A 100.00 100.00 0 0 0 60.41 -79.69 M 78.33 -62.17 L 90.60 -86.12 M 66.96 74.27 A 100.00 100.00 0 0 0 83.33 55.28 A 100.00 100.00 0 0 0 94.46 32.82 M 66.96 74.27 L 81.42 94.84 M 81.42 94.84 A 125.00 125.00 0 0 0 98.85 76.51 A 125.00 125.00 0 0 0 112.23 55.05 A 125.00 125.00 0 0 0 121.01 31.33 A 125.00 125.00 0 0 0 124.84 6.33 L 99.65 8.30 A 100.00 100.00 0 0 0 98.59 -16.74 L 123.56 -18.93 M 81.42 94.84 A 125.00 125.00 0 0 1 60.66 109.29 A 125.00 125.00 0 0 1 37.42 119.27 A 125.00 125.00 0 0 1 12.65 124.36 A 125.00 125.00 0 0 1 -12.65 124.36" fill="none" stroke="#f3f4f6" stroke-width="14" stroke-linecap="round" stroke-linejoin="round"/><circle cx="2.1316282072803006e-14" cy="-125" r="12" fill="#f3f4f6"/><circle cx="0" cy="0" r="12" fill="#f3f4f6"/></svg>